<mxfile host="Electron" agent="Mozilla/5.0 (Windows NT 10.0; Win64; x64) AppleWebKit/537.36 (KHTML, like Gecko) draw.io/26.1.1 Chrome/132.0.6834.210 Electron/34.3.3 Safari/537.36" version="26.1.1">
  <diagram id="C5RBs43oDa-KdzZeNtuy" name="Page-1">
    <mxGraphModel dx="2261" dy="2005" grid="1" gridSize="10" guides="1" tooltips="1" connect="1" arrows="1" fold="1" page="1" pageScale="1" pageWidth="827" pageHeight="1169" math="0" shadow="0">
      <root>
        <mxCell id="WIyWlLk6GJQsqaUBKTNV-0" />
        <mxCell id="WIyWlLk6GJQsqaUBKTNV-1" parent="WIyWlLk6GJQsqaUBKTNV-0" />
        <mxCell id="Kp6rxMUCcgl-6s3tbfnN-2" value="" style="edgeStyle=orthogonalEdgeStyle;rounded=0;orthogonalLoop=1;jettySize=auto;html=1;" parent="WIyWlLk6GJQsqaUBKTNV-1" source="Kp6rxMUCcgl-6s3tbfnN-0" target="Kp6rxMUCcgl-6s3tbfnN-1" edge="1">
          <mxGeometry relative="1" as="geometry" />
        </mxCell>
        <mxCell id="Kp6rxMUCcgl-6s3tbfnN-0" value="&lt;font style=&quot;font-size: 14px;&quot;&gt;&lt;b&gt;Start&lt;/b&gt;&lt;/font&gt;" style="strokeWidth=2;html=1;shape=mxgraph.flowchart.start_1;whiteSpace=wrap;" parent="WIyWlLk6GJQsqaUBKTNV-1" vertex="1">
          <mxGeometry x="-180" y="-80" width="100" height="60" as="geometry" />
        </mxCell>
        <mxCell id="Kp6rxMUCcgl-6s3tbfnN-4" value="" style="edgeStyle=orthogonalEdgeStyle;rounded=0;orthogonalLoop=1;jettySize=auto;html=1;" parent="WIyWlLk6GJQsqaUBKTNV-1" source="Kp6rxMUCcgl-6s3tbfnN-1" target="Kp6rxMUCcgl-6s3tbfnN-3" edge="1">
          <mxGeometry relative="1" as="geometry" />
        </mxCell>
        <mxCell id="Kp6rxMUCcgl-6s3tbfnN-1" value="&lt;font style=&quot;font-size: 14px;&quot;&gt;&lt;b style=&quot;color: rgb(0, 153, 0);&quot;&gt;Bot&lt;/b&gt;: Hello! would you like to register a new account&lt;/font&gt;" style="whiteSpace=wrap;html=1;strokeWidth=2;" parent="WIyWlLk6GJQsqaUBKTNV-1" vertex="1">
          <mxGeometry x="-190" width="120" height="60" as="geometry" />
        </mxCell>
        <mxCell id="Kp6rxMUCcgl-6s3tbfnN-8" value="" style="edgeStyle=orthogonalEdgeStyle;rounded=0;orthogonalLoop=1;jettySize=auto;html=1;" parent="WIyWlLk6GJQsqaUBKTNV-1" source="Kp6rxMUCcgl-6s3tbfnN-3" target="Kp6rxMUCcgl-6s3tbfnN-7" edge="1">
          <mxGeometry relative="1" as="geometry" />
        </mxCell>
        <mxCell id="Kp6rxMUCcgl-6s3tbfnN-3" value="&lt;font style=&quot;font-size: 14px;&quot;&gt;&lt;b style=&quot;color: rgb(255, 0, 0);&quot;&gt;User&lt;/b&gt;: Yes&lt;/font&gt;" style="whiteSpace=wrap;html=1;strokeWidth=2;" parent="WIyWlLk6GJQsqaUBKTNV-1" vertex="1">
          <mxGeometry x="-190" y="90" width="120" height="60" as="geometry" />
        </mxCell>
        <mxCell id="Kp6rxMUCcgl-6s3tbfnN-82" style="edgeStyle=orthogonalEdgeStyle;rounded=0;orthogonalLoop=1;jettySize=auto;html=1;exitX=1;exitY=0.5;exitDx=0;exitDy=0;entryX=0;entryY=0.5;entryDx=0;entryDy=0;" parent="WIyWlLk6GJQsqaUBKTNV-1" source="Kp6rxMUCcgl-6s3tbfnN-7" target="Kp6rxMUCcgl-6s3tbfnN-81" edge="1">
          <mxGeometry relative="1" as="geometry" />
        </mxCell>
        <mxCell id="Kp6rxMUCcgl-6s3tbfnN-7" value="&lt;font style=&quot;font-size: 14px;&quot;&gt;&lt;b style=&quot;color: rgb(0, 153, 0);&quot;&gt;Bot&lt;/b&gt;: Great!&lt;/font&gt;&lt;div&gt;&lt;font size=&quot;3&quot;&gt;What&#39;s your first name?&lt;/font&gt;&lt;/div&gt;" style="whiteSpace=wrap;html=1;strokeWidth=2;" parent="WIyWlLk6GJQsqaUBKTNV-1" vertex="1">
          <mxGeometry x="-360" y="180" width="120" height="60" as="geometry" />
        </mxCell>
        <mxCell id="Kp6rxMUCcgl-6s3tbfnN-161" style="edgeStyle=orthogonalEdgeStyle;rounded=0;orthogonalLoop=1;jettySize=auto;html=1;exitX=1;exitY=0.5;exitDx=0;exitDy=0;entryX=1;entryY=0.5;entryDx=0;entryDy=0;" parent="WIyWlLk6GJQsqaUBKTNV-1" source="Kp6rxMUCcgl-6s3tbfnN-9" target="Kp6rxMUCcgl-6s3tbfnN-11" edge="1">
          <mxGeometry relative="1" as="geometry" />
        </mxCell>
        <mxCell id="Kp6rxMUCcgl-6s3tbfnN-162" value="&lt;font style=&quot;font-size: 14px;&quot;&gt;YES&lt;/font&gt;" style="edgeLabel;html=1;align=center;verticalAlign=middle;resizable=0;points=[];" parent="Kp6rxMUCcgl-6s3tbfnN-161" vertex="1" connectable="0">
          <mxGeometry x="-0.0531" y="-1" relative="1" as="geometry">
            <mxPoint as="offset" />
          </mxGeometry>
        </mxCell>
        <mxCell id="Kp6rxMUCcgl-6s3tbfnN-166" style="edgeStyle=orthogonalEdgeStyle;rounded=0;orthogonalLoop=1;jettySize=auto;html=1;exitX=0.5;exitY=1;exitDx=0;exitDy=0;entryX=0;entryY=0.5;entryDx=0;entryDy=0;" parent="WIyWlLk6GJQsqaUBKTNV-1" source="Kp6rxMUCcgl-6s3tbfnN-9" target="Kp6rxMUCcgl-6s3tbfnN-7" edge="1">
          <mxGeometry relative="1" as="geometry">
            <Array as="points">
              <mxPoint x="30" y="280" />
              <mxPoint x="-380" y="280" />
              <mxPoint x="-380" y="210" />
            </Array>
          </mxGeometry>
        </mxCell>
        <mxCell id="Kp6rxMUCcgl-6s3tbfnN-167" value="&lt;font style=&quot;font-size: 14px;&quot;&gt;NO&lt;/font&gt;" style="edgeLabel;html=1;align=center;verticalAlign=middle;resizable=0;points=[];" parent="Kp6rxMUCcgl-6s3tbfnN-166" vertex="1" connectable="0">
          <mxGeometry x="-0.1606" y="2" relative="1" as="geometry">
            <mxPoint x="-1" as="offset" />
          </mxGeometry>
        </mxCell>
        <mxCell id="Kp6rxMUCcgl-6s3tbfnN-9" value="&lt;font style=&quot;font-size: 14px;&quot;&gt;&lt;b style=&quot;color: rgb(0, 153, 0);&quot;&gt;Bot&lt;/b&gt;: Is the first name clear?&lt;/font&gt;" style="rhombus;whiteSpace=wrap;html=1;strokeWidth=2;" parent="WIyWlLk6GJQsqaUBKTNV-1" vertex="1">
          <mxGeometry x="-35" y="160" width="130" height="100" as="geometry" />
        </mxCell>
        <mxCell id="Kp6rxMUCcgl-6s3tbfnN-88" value="" style="edgeStyle=orthogonalEdgeStyle;rounded=0;orthogonalLoop=1;jettySize=auto;html=1;" parent="WIyWlLk6GJQsqaUBKTNV-1" source="Kp6rxMUCcgl-6s3tbfnN-11" target="Kp6rxMUCcgl-6s3tbfnN-87" edge="1">
          <mxGeometry relative="1" as="geometry" />
        </mxCell>
        <mxCell id="Kp6rxMUCcgl-6s3tbfnN-11" value="&lt;font style=&quot;font-size: 14px;&quot;&gt;&lt;b style=&quot;color: rgb(0, 153, 0);&quot;&gt;Bot&lt;/b&gt;: What’s your last name?&lt;/font&gt;" style="whiteSpace=wrap;html=1;strokeWidth=2;" parent="WIyWlLk6GJQsqaUBKTNV-1" vertex="1">
          <mxGeometry x="-30" y="330" width="120" height="60" as="geometry" />
        </mxCell>
        <mxCell id="Kp6rxMUCcgl-6s3tbfnN-168" style="edgeStyle=orthogonalEdgeStyle;rounded=0;orthogonalLoop=1;jettySize=auto;html=1;exitX=0.5;exitY=0;exitDx=0;exitDy=0;entryX=0.5;entryY=0;entryDx=0;entryDy=0;" parent="WIyWlLk6GJQsqaUBKTNV-1" source="Kp6rxMUCcgl-6s3tbfnN-18" target="Kp6rxMUCcgl-6s3tbfnN-11" edge="1">
          <mxGeometry relative="1" as="geometry">
            <Array as="points">
              <mxPoint x="-300" y="300" />
              <mxPoint x="30" y="300" />
            </Array>
          </mxGeometry>
        </mxCell>
        <mxCell id="Kp6rxMUCcgl-6s3tbfnN-170" value="&lt;font style=&quot;font-size: 14px;&quot;&gt;NO&lt;/font&gt;" style="edgeLabel;html=1;align=center;verticalAlign=middle;resizable=0;points=[];" parent="Kp6rxMUCcgl-6s3tbfnN-168" vertex="1" connectable="0">
          <mxGeometry x="-0.5959" relative="1" as="geometry">
            <mxPoint x="-1" as="offset" />
          </mxGeometry>
        </mxCell>
        <mxCell id="Kp6rxMUCcgl-6s3tbfnN-174" style="edgeStyle=orthogonalEdgeStyle;rounded=0;orthogonalLoop=1;jettySize=auto;html=1;exitX=0;exitY=0.5;exitDx=0;exitDy=0;entryX=0;entryY=0.5;entryDx=0;entryDy=0;" parent="WIyWlLk6GJQsqaUBKTNV-1" source="Kp6rxMUCcgl-6s3tbfnN-18" target="Kp6rxMUCcgl-6s3tbfnN-22" edge="1">
          <mxGeometry relative="1" as="geometry" />
        </mxCell>
        <mxCell id="Kp6rxMUCcgl-6s3tbfnN-175" value="&lt;font style=&quot;font-size: 14px;&quot;&gt;YES&lt;/font&gt;" style="edgeLabel;html=1;align=center;verticalAlign=middle;resizable=0;points=[];" parent="Kp6rxMUCcgl-6s3tbfnN-174" vertex="1" connectable="0">
          <mxGeometry x="0.0125" y="-2" relative="1" as="geometry">
            <mxPoint as="offset" />
          </mxGeometry>
        </mxCell>
        <mxCell id="Kp6rxMUCcgl-6s3tbfnN-18" value="&lt;font style=&quot;font-size: 14px;&quot;&gt;Is the last name&amp;nbsp;&lt;/font&gt;&lt;div&gt;&lt;font style=&quot;font-size: 14px;&quot;&gt;clear?&lt;/font&gt;&lt;/div&gt;" style="rhombus;whiteSpace=wrap;html=1;strokeWidth=2;" parent="WIyWlLk6GJQsqaUBKTNV-1" vertex="1">
          <mxGeometry x="-365" y="310" width="130" height="100" as="geometry" />
        </mxCell>
        <mxCell id="Kp6rxMUCcgl-6s3tbfnN-99" value="" style="edgeStyle=orthogonalEdgeStyle;rounded=0;orthogonalLoop=1;jettySize=auto;html=1;" parent="WIyWlLk6GJQsqaUBKTNV-1" source="Kp6rxMUCcgl-6s3tbfnN-22" target="Kp6rxMUCcgl-6s3tbfnN-98" edge="1">
          <mxGeometry relative="1" as="geometry" />
        </mxCell>
        <mxCell id="Kp6rxMUCcgl-6s3tbfnN-22" value="&lt;font style=&quot;font-size: 14px;&quot;&gt;&lt;b style=&quot;color: rgb(0, 153, 0);&quot;&gt;Bot&lt;/b&gt;: What’s your date of birth?&lt;/font&gt;" style="whiteSpace=wrap;html=1;strokeWidth=2;" parent="WIyWlLk6GJQsqaUBKTNV-1" vertex="1">
          <mxGeometry x="-360" y="450" width="120" height="60" as="geometry" />
        </mxCell>
        <mxCell id="Kp6rxMUCcgl-6s3tbfnN-172" style="edgeStyle=orthogonalEdgeStyle;rounded=0;orthogonalLoop=1;jettySize=auto;html=1;exitX=1;exitY=0.5;exitDx=0;exitDy=0;entryX=1;entryY=0.5;entryDx=0;entryDy=0;" parent="WIyWlLk6GJQsqaUBKTNV-1" source="Kp6rxMUCcgl-6s3tbfnN-26" target="Kp6rxMUCcgl-6s3tbfnN-30" edge="1">
          <mxGeometry relative="1" as="geometry">
            <Array as="points">
              <mxPoint x="110" y="480" />
              <mxPoint x="110" y="610" />
              <mxPoint x="30" y="610" />
              <mxPoint x="30" y="615" />
            </Array>
          </mxGeometry>
        </mxCell>
        <mxCell id="Kp6rxMUCcgl-6s3tbfnN-173" value="&lt;font style=&quot;font-size: 14px;&quot;&gt;YES&lt;/font&gt;" style="edgeLabel;html=1;align=center;verticalAlign=middle;resizable=0;points=[];" parent="Kp6rxMUCcgl-6s3tbfnN-172" vertex="1" connectable="0">
          <mxGeometry x="-0.0244" y="-1" relative="1" as="geometry">
            <mxPoint x="-1" y="-51" as="offset" />
          </mxGeometry>
        </mxCell>
        <mxCell id="Kp6rxMUCcgl-6s3tbfnN-176" style="edgeStyle=orthogonalEdgeStyle;rounded=0;orthogonalLoop=1;jettySize=auto;html=1;exitX=0.5;exitY=0;exitDx=0;exitDy=0;entryX=0.5;entryY=0;entryDx=0;entryDy=0;" parent="WIyWlLk6GJQsqaUBKTNV-1" source="Kp6rxMUCcgl-6s3tbfnN-26" target="Kp6rxMUCcgl-6s3tbfnN-22" edge="1">
          <mxGeometry relative="1" as="geometry" />
        </mxCell>
        <mxCell id="Kp6rxMUCcgl-6s3tbfnN-177" value="&lt;font style=&quot;font-size: 14px;&quot;&gt;NO&lt;/font&gt;" style="edgeLabel;html=1;align=center;verticalAlign=middle;resizable=0;points=[];" parent="Kp6rxMUCcgl-6s3tbfnN-176" vertex="1" connectable="0">
          <mxGeometry x="-0.2724" y="1" relative="1" as="geometry">
            <mxPoint x="1" as="offset" />
          </mxGeometry>
        </mxCell>
        <mxCell id="Kp6rxMUCcgl-6s3tbfnN-26" value="&lt;font style=&quot;font-size: 14px;&quot;&gt;Is DOB valid?&lt;/font&gt;" style="rhombus;whiteSpace=wrap;html=1;strokeWidth=2;" parent="WIyWlLk6GJQsqaUBKTNV-1" vertex="1">
          <mxGeometry x="-25" y="440" width="110" height="80" as="geometry" />
        </mxCell>
        <mxCell id="Kp6rxMUCcgl-6s3tbfnN-108" value="" style="edgeStyle=orthogonalEdgeStyle;rounded=0;orthogonalLoop=1;jettySize=auto;html=1;" parent="WIyWlLk6GJQsqaUBKTNV-1" source="Kp6rxMUCcgl-6s3tbfnN-30" target="Kp6rxMUCcgl-6s3tbfnN-107" edge="1">
          <mxGeometry relative="1" as="geometry" />
        </mxCell>
        <mxCell id="Kp6rxMUCcgl-6s3tbfnN-30" value="&lt;font style=&quot;font-size: 14px;&quot;&gt;&lt;b style=&quot;color: rgb(0, 153, 0);&quot;&gt;Bot&lt;/b&gt;: What’s your email?&lt;/font&gt;" style="whiteSpace=wrap;html=1;strokeWidth=2;" parent="WIyWlLk6GJQsqaUBKTNV-1" vertex="1">
          <mxGeometry x="-30" y="585" width="120" height="60" as="geometry" />
        </mxCell>
        <mxCell id="Kp6rxMUCcgl-6s3tbfnN-179" style="edgeStyle=orthogonalEdgeStyle;rounded=0;orthogonalLoop=1;jettySize=auto;html=1;exitX=0;exitY=0.5;exitDx=0;exitDy=0;entryX=0;entryY=0.5;entryDx=0;entryDy=0;" parent="WIyWlLk6GJQsqaUBKTNV-1" source="Kp6rxMUCcgl-6s3tbfnN-33" target="Kp6rxMUCcgl-6s3tbfnN-35" edge="1">
          <mxGeometry relative="1" as="geometry" />
        </mxCell>
        <mxCell id="Kp6rxMUCcgl-6s3tbfnN-180" value="&lt;font style=&quot;font-size: 14px;&quot;&gt;YES&lt;/font&gt;" style="edgeLabel;html=1;align=center;verticalAlign=middle;resizable=0;points=[];" parent="Kp6rxMUCcgl-6s3tbfnN-179" vertex="1" connectable="0">
          <mxGeometry x="-0.002" y="-2" relative="1" as="geometry">
            <mxPoint as="offset" />
          </mxGeometry>
        </mxCell>
        <mxCell id="Kp6rxMUCcgl-6s3tbfnN-182" style="edgeStyle=orthogonalEdgeStyle;rounded=0;orthogonalLoop=1;jettySize=auto;html=1;exitX=0.5;exitY=0;exitDx=0;exitDy=0;entryX=0.5;entryY=0;entryDx=0;entryDy=0;" parent="WIyWlLk6GJQsqaUBKTNV-1" source="Kp6rxMUCcgl-6s3tbfnN-33" target="Kp6rxMUCcgl-6s3tbfnN-30" edge="1">
          <mxGeometry relative="1" as="geometry" />
        </mxCell>
        <mxCell id="Kp6rxMUCcgl-6s3tbfnN-183" value="&lt;font style=&quot;font-size: 14px;&quot;&gt;NO&lt;/font&gt;" style="edgeLabel;html=1;align=center;verticalAlign=middle;resizable=0;points=[];" parent="Kp6rxMUCcgl-6s3tbfnN-182" vertex="1" connectable="0">
          <mxGeometry x="0.0341" y="-1" relative="1" as="geometry">
            <mxPoint as="offset" />
          </mxGeometry>
        </mxCell>
        <mxCell id="Kp6rxMUCcgl-6s3tbfnN-33" value="&lt;font style=&quot;font-size: 14px;&quot;&gt;Is email format&lt;/font&gt;&lt;div&gt;&lt;font style=&quot;font-size: 14px;&quot;&gt;&amp;nbsp;valid?&lt;/font&gt;&lt;/div&gt;" style="rhombus;whiteSpace=wrap;html=1;strokeWidth=2;" parent="WIyWlLk6GJQsqaUBKTNV-1" vertex="1">
          <mxGeometry x="-370" y="575" width="140" height="80" as="geometry" />
        </mxCell>
        <mxCell id="Kp6rxMUCcgl-6s3tbfnN-122" value="" style="edgeStyle=orthogonalEdgeStyle;rounded=0;orthogonalLoop=1;jettySize=auto;html=1;" parent="WIyWlLk6GJQsqaUBKTNV-1" source="Kp6rxMUCcgl-6s3tbfnN-35" target="Kp6rxMUCcgl-6s3tbfnN-121" edge="1">
          <mxGeometry relative="1" as="geometry" />
        </mxCell>
        <mxCell id="Kp6rxMUCcgl-6s3tbfnN-35" value="&lt;font style=&quot;font-size: 14px;&quot;&gt;&lt;b style=&quot;color: rgb(0, 153, 0);&quot;&gt;Bot&lt;/b&gt;: What’s your phone number?&lt;/font&gt;" style="whiteSpace=wrap;html=1;strokeWidth=2;" parent="WIyWlLk6GJQsqaUBKTNV-1" vertex="1">
          <mxGeometry x="-360" y="710" width="120" height="60" as="geometry" />
        </mxCell>
        <mxCell id="Kp6rxMUCcgl-6s3tbfnN-185" style="edgeStyle=orthogonalEdgeStyle;rounded=0;orthogonalLoop=1;jettySize=auto;html=1;exitX=0.5;exitY=0;exitDx=0;exitDy=0;entryX=0.5;entryY=0;entryDx=0;entryDy=0;" parent="WIyWlLk6GJQsqaUBKTNV-1" source="Kp6rxMUCcgl-6s3tbfnN-40" target="Kp6rxMUCcgl-6s3tbfnN-35" edge="1">
          <mxGeometry relative="1" as="geometry" />
        </mxCell>
        <mxCell id="Kp6rxMUCcgl-6s3tbfnN-186" value="&lt;font style=&quot;font-size: 14px;&quot;&gt;NO&lt;/font&gt;" style="edgeLabel;html=1;align=center;verticalAlign=middle;resizable=0;points=[];" parent="Kp6rxMUCcgl-6s3tbfnN-185" vertex="1" connectable="0">
          <mxGeometry x="-0.0186" y="2" relative="1" as="geometry">
            <mxPoint x="1" as="offset" />
          </mxGeometry>
        </mxCell>
        <mxCell id="Kp6rxMUCcgl-6s3tbfnN-187" style="edgeStyle=orthogonalEdgeStyle;rounded=0;orthogonalLoop=1;jettySize=auto;html=1;exitX=1;exitY=0.5;exitDx=0;exitDy=0;entryX=1;entryY=0.5;entryDx=0;entryDy=0;" parent="WIyWlLk6GJQsqaUBKTNV-1" source="Kp6rxMUCcgl-6s3tbfnN-40" target="Kp6rxMUCcgl-6s3tbfnN-42" edge="1">
          <mxGeometry relative="1" as="geometry" />
        </mxCell>
        <mxCell id="Kp6rxMUCcgl-6s3tbfnN-188" value="&lt;font style=&quot;font-size: 14px;&quot;&gt;YES&lt;/font&gt;" style="edgeLabel;html=1;align=center;verticalAlign=middle;resizable=0;points=[];" parent="Kp6rxMUCcgl-6s3tbfnN-187" vertex="1" connectable="0">
          <mxGeometry x="0.085" y="-1" relative="1" as="geometry">
            <mxPoint as="offset" />
          </mxGeometry>
        </mxCell>
        <mxCell id="Kp6rxMUCcgl-6s3tbfnN-40" value="&lt;font style=&quot;font-size: 14px;&quot;&gt;Is phone valid?&lt;/font&gt;" style="rhombus;whiteSpace=wrap;html=1;strokeWidth=2;" parent="WIyWlLk6GJQsqaUBKTNV-1" vertex="1">
          <mxGeometry x="-10" y="700" width="80" height="80" as="geometry" />
        </mxCell>
        <mxCell id="Kp6rxMUCcgl-6s3tbfnN-128" value="" style="edgeStyle=orthogonalEdgeStyle;rounded=0;orthogonalLoop=1;jettySize=auto;html=1;" parent="WIyWlLk6GJQsqaUBKTNV-1" source="Kp6rxMUCcgl-6s3tbfnN-42" target="Kp6rxMUCcgl-6s3tbfnN-127" edge="1">
          <mxGeometry relative="1" as="geometry" />
        </mxCell>
        <mxCell id="Kp6rxMUCcgl-6s3tbfnN-42" value="&lt;font style=&quot;font-size: 14px;&quot;&gt;&lt;b style=&quot;color: rgb(0, 153, 0);&quot;&gt;Bot&lt;/b&gt;: What’s your street and house number?&lt;/font&gt;" style="whiteSpace=wrap;html=1;strokeWidth=2;" parent="WIyWlLk6GJQsqaUBKTNV-1" vertex="1">
          <mxGeometry x="-30" y="830" width="120" height="60" as="geometry" />
        </mxCell>
        <mxCell id="Kp6rxMUCcgl-6s3tbfnN-190" style="edgeStyle=orthogonalEdgeStyle;rounded=0;orthogonalLoop=1;jettySize=auto;html=1;exitX=0.5;exitY=0;exitDx=0;exitDy=0;entryX=0.5;entryY=0;entryDx=0;entryDy=0;" parent="WIyWlLk6GJQsqaUBKTNV-1" source="Kp6rxMUCcgl-6s3tbfnN-49" target="Kp6rxMUCcgl-6s3tbfnN-42" edge="1">
          <mxGeometry relative="1" as="geometry" />
        </mxCell>
        <mxCell id="Kp6rxMUCcgl-6s3tbfnN-191" value="&lt;font style=&quot;font-size: 14px;&quot;&gt;NO&lt;/font&gt;" style="edgeLabel;html=1;align=center;verticalAlign=middle;resizable=0;points=[];" parent="Kp6rxMUCcgl-6s3tbfnN-190" vertex="1" connectable="0">
          <mxGeometry x="-0.0618" y="-2" relative="1" as="geometry">
            <mxPoint as="offset" />
          </mxGeometry>
        </mxCell>
        <mxCell id="Kp6rxMUCcgl-6s3tbfnN-193" style="edgeStyle=orthogonalEdgeStyle;rounded=0;orthogonalLoop=1;jettySize=auto;html=1;exitX=0;exitY=0.5;exitDx=0;exitDy=0;entryX=0;entryY=0.5;entryDx=0;entryDy=0;" parent="WIyWlLk6GJQsqaUBKTNV-1" source="Kp6rxMUCcgl-6s3tbfnN-49" target="Kp6rxMUCcgl-6s3tbfnN-53" edge="1">
          <mxGeometry relative="1" as="geometry" />
        </mxCell>
        <mxCell id="Kp6rxMUCcgl-6s3tbfnN-194" value="&lt;font style=&quot;font-size: 14px;&quot;&gt;YES&lt;/font&gt;" style="edgeLabel;html=1;align=center;verticalAlign=middle;resizable=0;points=[];" parent="Kp6rxMUCcgl-6s3tbfnN-193" vertex="1" connectable="0">
          <mxGeometry x="-0.0839" y="-2" relative="1" as="geometry">
            <mxPoint as="offset" />
          </mxGeometry>
        </mxCell>
        <mxCell id="Kp6rxMUCcgl-6s3tbfnN-49" value="&lt;font style=&quot;font-size: 14px;&quot;&gt;Is&amp;nbsp;street and house number right?&lt;/font&gt;" style="rhombus;whiteSpace=wrap;html=1;strokeWidth=2;" parent="WIyWlLk6GJQsqaUBKTNV-1" vertex="1">
          <mxGeometry x="-377.5" y="811.25" width="155" height="97.5" as="geometry" />
        </mxCell>
        <mxCell id="Kp6rxMUCcgl-6s3tbfnN-137" value="" style="edgeStyle=orthogonalEdgeStyle;rounded=0;orthogonalLoop=1;jettySize=auto;html=1;" parent="WIyWlLk6GJQsqaUBKTNV-1" source="Kp6rxMUCcgl-6s3tbfnN-53" target="Kp6rxMUCcgl-6s3tbfnN-136" edge="1">
          <mxGeometry relative="1" as="geometry" />
        </mxCell>
        <mxCell id="Kp6rxMUCcgl-6s3tbfnN-53" value="&lt;font style=&quot;font-size: 14px;&quot;&gt;&lt;b style=&quot;color: rgb(0, 153, 0);&quot;&gt;Bot&lt;/b&gt;: What’s your postal code?&lt;/font&gt;" style="whiteSpace=wrap;html=1;strokeWidth=2;" parent="WIyWlLk6GJQsqaUBKTNV-1" vertex="1">
          <mxGeometry x="-360" y="950" width="120" height="60" as="geometry" />
        </mxCell>
        <mxCell id="Kp6rxMUCcgl-6s3tbfnN-196" style="edgeStyle=orthogonalEdgeStyle;rounded=0;orthogonalLoop=1;jettySize=auto;html=1;exitX=1;exitY=0.5;exitDx=0;exitDy=0;entryX=1;entryY=0.5;entryDx=0;entryDy=0;" parent="WIyWlLk6GJQsqaUBKTNV-1" source="Kp6rxMUCcgl-6s3tbfnN-56" target="Kp6rxMUCcgl-6s3tbfnN-60" edge="1">
          <mxGeometry relative="1" as="geometry" />
        </mxCell>
        <mxCell id="Kp6rxMUCcgl-6s3tbfnN-197" value="&lt;font style=&quot;font-size: 14px;&quot;&gt;Yes&lt;/font&gt;" style="edgeLabel;html=1;align=center;verticalAlign=middle;resizable=0;points=[];" parent="Kp6rxMUCcgl-6s3tbfnN-196" vertex="1" connectable="0">
          <mxGeometry x="0.0364" y="2" relative="1" as="geometry">
            <mxPoint as="offset" />
          </mxGeometry>
        </mxCell>
        <mxCell id="Kp6rxMUCcgl-6s3tbfnN-201" style="edgeStyle=orthogonalEdgeStyle;rounded=0;orthogonalLoop=1;jettySize=auto;html=1;exitX=0.5;exitY=0;exitDx=0;exitDy=0;entryX=0.5;entryY=0;entryDx=0;entryDy=0;" parent="WIyWlLk6GJQsqaUBKTNV-1" source="Kp6rxMUCcgl-6s3tbfnN-56" target="Kp6rxMUCcgl-6s3tbfnN-53" edge="1">
          <mxGeometry relative="1" as="geometry" />
        </mxCell>
        <mxCell id="Kp6rxMUCcgl-6s3tbfnN-202" value="&lt;font style=&quot;font-size: 14px;&quot;&gt;NO&lt;/font&gt;" style="edgeLabel;html=1;align=center;verticalAlign=middle;resizable=0;points=[];" parent="Kp6rxMUCcgl-6s3tbfnN-201" vertex="1" connectable="0">
          <mxGeometry x="-0.0008" y="-1" relative="1" as="geometry">
            <mxPoint x="-1" as="offset" />
          </mxGeometry>
        </mxCell>
        <mxCell id="Kp6rxMUCcgl-6s3tbfnN-56" value="&lt;font style=&quot;font-size: 14px;&quot;&gt;Is postal code right?&lt;/font&gt;" style="rhombus;whiteSpace=wrap;html=1;strokeWidth=2;" parent="WIyWlLk6GJQsqaUBKTNV-1" vertex="1">
          <mxGeometry x="-22.5" y="935" width="105" height="90" as="geometry" />
        </mxCell>
        <mxCell id="Kp6rxMUCcgl-6s3tbfnN-146" value="" style="edgeStyle=orthogonalEdgeStyle;rounded=0;orthogonalLoop=1;jettySize=auto;html=1;" parent="WIyWlLk6GJQsqaUBKTNV-1" source="Kp6rxMUCcgl-6s3tbfnN-60" target="Kp6rxMUCcgl-6s3tbfnN-145" edge="1">
          <mxGeometry relative="1" as="geometry" />
        </mxCell>
        <mxCell id="Kp6rxMUCcgl-6s3tbfnN-60" value="&lt;font style=&quot;font-size: 14px;&quot;&gt;&lt;b style=&quot;color: rgb(0, 153, 0);&quot;&gt;Bot&lt;/b&gt;: What’s your city?&lt;/font&gt;" style="whiteSpace=wrap;html=1;strokeWidth=2;" parent="WIyWlLk6GJQsqaUBKTNV-1" vertex="1">
          <mxGeometry x="-30" y="1060" width="120" height="60" as="geometry" />
        </mxCell>
        <mxCell id="Kp6rxMUCcgl-6s3tbfnN-203" style="edgeStyle=orthogonalEdgeStyle;rounded=0;orthogonalLoop=1;jettySize=auto;html=1;exitX=0.5;exitY=0;exitDx=0;exitDy=0;entryX=0.5;entryY=0;entryDx=0;entryDy=0;" parent="WIyWlLk6GJQsqaUBKTNV-1" source="Kp6rxMUCcgl-6s3tbfnN-63" target="Kp6rxMUCcgl-6s3tbfnN-60" edge="1">
          <mxGeometry relative="1" as="geometry" />
        </mxCell>
        <mxCell id="Kp6rxMUCcgl-6s3tbfnN-204" value="&lt;font style=&quot;font-size: 14px;&quot;&gt;NO&lt;/font&gt;" style="edgeLabel;html=1;align=center;verticalAlign=middle;resizable=0;points=[];" parent="Kp6rxMUCcgl-6s3tbfnN-203" vertex="1" connectable="0">
          <mxGeometry x="-0.0154" y="-1" relative="1" as="geometry">
            <mxPoint as="offset" />
          </mxGeometry>
        </mxCell>
        <mxCell id="Kp6rxMUCcgl-6s3tbfnN-205" style="edgeStyle=orthogonalEdgeStyle;rounded=0;orthogonalLoop=1;jettySize=auto;html=1;exitX=0;exitY=0.5;exitDx=0;exitDy=0;entryX=0;entryY=0.5;entryDx=0;entryDy=0;" parent="WIyWlLk6GJQsqaUBKTNV-1" source="Kp6rxMUCcgl-6s3tbfnN-63" target="Kp6rxMUCcgl-6s3tbfnN-65" edge="1">
          <mxGeometry relative="1" as="geometry">
            <Array as="points">
              <mxPoint x="-390" y="1090" />
              <mxPoint x="-390" y="1199" />
            </Array>
          </mxGeometry>
        </mxCell>
        <mxCell id="Kp6rxMUCcgl-6s3tbfnN-206" value="&lt;font style=&quot;font-size: 14px;&quot;&gt;YES&lt;/font&gt;" style="edgeLabel;html=1;align=center;verticalAlign=middle;resizable=0;points=[];" parent="Kp6rxMUCcgl-6s3tbfnN-205" vertex="1" connectable="0">
          <mxGeometry x="0.0952" y="-2" relative="1" as="geometry">
            <mxPoint as="offset" />
          </mxGeometry>
        </mxCell>
        <mxCell id="Kp6rxMUCcgl-6s3tbfnN-63" value="&lt;font style=&quot;font-size: 14px;&quot;&gt;Is the City Clear?&lt;/font&gt;" style="rhombus;whiteSpace=wrap;html=1;strokeWidth=2;" parent="WIyWlLk6GJQsqaUBKTNV-1" vertex="1">
          <mxGeometry x="-340" y="1050" width="80" height="80" as="geometry" />
        </mxCell>
        <mxCell id="Kp6rxMUCcgl-6s3tbfnN-153" value="" style="edgeStyle=orthogonalEdgeStyle;rounded=0;orthogonalLoop=1;jettySize=auto;html=1;" parent="WIyWlLk6GJQsqaUBKTNV-1" source="Kp6rxMUCcgl-6s3tbfnN-65" target="Kp6rxMUCcgl-6s3tbfnN-152" edge="1">
          <mxGeometry relative="1" as="geometry" />
        </mxCell>
        <mxCell id="Kp6rxMUCcgl-6s3tbfnN-65" value="&lt;font style=&quot;font-size: 14px;&quot;&gt;&lt;b style=&quot;color: rgb(0, 153, 0);&quot;&gt;Bot&lt;/b&gt;: What’s your country?&lt;/font&gt;" style="whiteSpace=wrap;html=1;strokeWidth=2;" parent="WIyWlLk6GJQsqaUBKTNV-1" vertex="1">
          <mxGeometry x="-360" y="1169" width="120" height="60" as="geometry" />
        </mxCell>
        <mxCell id="Kp6rxMUCcgl-6s3tbfnN-207" style="edgeStyle=orthogonalEdgeStyle;rounded=0;orthogonalLoop=1;jettySize=auto;html=1;exitX=0.5;exitY=0;exitDx=0;exitDy=0;entryX=0.5;entryY=0;entryDx=0;entryDy=0;" parent="WIyWlLk6GJQsqaUBKTNV-1" source="Kp6rxMUCcgl-6s3tbfnN-71" target="Kp6rxMUCcgl-6s3tbfnN-65" edge="1">
          <mxGeometry relative="1" as="geometry" />
        </mxCell>
        <mxCell id="Kp6rxMUCcgl-6s3tbfnN-208" value="&lt;font style=&quot;font-size: 14px;&quot;&gt;NO&lt;/font&gt;" style="edgeLabel;html=1;align=center;verticalAlign=middle;resizable=0;points=[];" parent="Kp6rxMUCcgl-6s3tbfnN-207" vertex="1" connectable="0">
          <mxGeometry x="-0.0063" y="2" relative="1" as="geometry">
            <mxPoint x="-1" as="offset" />
          </mxGeometry>
        </mxCell>
        <mxCell id="Kp6rxMUCcgl-6s3tbfnN-210" style="edgeStyle=orthogonalEdgeStyle;rounded=0;orthogonalLoop=1;jettySize=auto;html=1;exitX=1;exitY=0.5;exitDx=0;exitDy=0;entryX=1;entryY=0.5;entryDx=0;entryDy=0;" parent="WIyWlLk6GJQsqaUBKTNV-1" source="Kp6rxMUCcgl-6s3tbfnN-71" target="Kp6rxMUCcgl-6s3tbfnN-76" edge="1">
          <mxGeometry relative="1" as="geometry" />
        </mxCell>
        <mxCell id="Kp6rxMUCcgl-6s3tbfnN-211" value="&lt;font style=&quot;font-size: 14px;&quot;&gt;YES&lt;/font&gt;" style="edgeLabel;html=1;align=center;verticalAlign=middle;resizable=0;points=[];" parent="Kp6rxMUCcgl-6s3tbfnN-210" vertex="1" connectable="0">
          <mxGeometry x="0.0144" y="-1" relative="1" as="geometry">
            <mxPoint as="offset" />
          </mxGeometry>
        </mxCell>
        <mxCell id="Kp6rxMUCcgl-6s3tbfnN-71" value="&lt;font style=&quot;font-size: 14px;&quot;&gt;Is Country Clear?&lt;/font&gt;" style="rhombus;whiteSpace=wrap;html=1;strokeWidth=2;" parent="WIyWlLk6GJQsqaUBKTNV-1" vertex="1">
          <mxGeometry x="-22.5" y="1159" width="105" height="80" as="geometry" />
        </mxCell>
        <mxCell id="Kp6rxMUCcgl-6s3tbfnN-76" value="&lt;font style=&quot;font-size: 14px;&quot;&gt;&lt;b style=&quot;color: rgb(0, 153, 0);&quot;&gt;Bot&lt;/b&gt;: Registration complete!&lt;/font&gt;" style="whiteSpace=wrap;html=1;strokeWidth=2;" parent="WIyWlLk6GJQsqaUBKTNV-1" vertex="1">
          <mxGeometry x="-30" y="1280" width="120" height="50" as="geometry" />
        </mxCell>
        <mxCell id="Kp6rxMUCcgl-6s3tbfnN-79" value="&lt;b style=&quot;font-size: 14px;&quot;&gt;End of registration flow&lt;/b&gt;" style="strokeWidth=2;html=1;shape=mxgraph.flowchart.terminator;whiteSpace=wrap;" parent="WIyWlLk6GJQsqaUBKTNV-1" vertex="1">
          <mxGeometry x="-270" y="1275" width="190" height="60" as="geometry" />
        </mxCell>
        <mxCell id="Kp6rxMUCcgl-6s3tbfnN-163" style="edgeStyle=orthogonalEdgeStyle;rounded=0;orthogonalLoop=1;jettySize=auto;html=1;exitX=1;exitY=0.5;exitDx=0;exitDy=0;entryX=0;entryY=0.5;entryDx=0;entryDy=0;" parent="WIyWlLk6GJQsqaUBKTNV-1" source="Kp6rxMUCcgl-6s3tbfnN-81" target="Kp6rxMUCcgl-6s3tbfnN-9" edge="1">
          <mxGeometry relative="1" as="geometry" />
        </mxCell>
        <mxCell id="Kp6rxMUCcgl-6s3tbfnN-81" value="&lt;font style=&quot;font-size: 14px;&quot;&gt;&lt;b style=&quot;color: rgb(255, 0, 0); font-size: medium;&quot;&gt;User&lt;/b&gt;: e.g. Moustafa&lt;/font&gt;" style="rounded=0;whiteSpace=wrap;html=1;" parent="WIyWlLk6GJQsqaUBKTNV-1" vertex="1">
          <mxGeometry x="-190" y="180" width="120" height="60" as="geometry" />
        </mxCell>
        <mxCell id="Kp6rxMUCcgl-6s3tbfnN-93" style="edgeStyle=orthogonalEdgeStyle;rounded=0;orthogonalLoop=1;jettySize=auto;html=1;exitX=0;exitY=0.5;exitDx=0;exitDy=0;entryX=1;entryY=0.5;entryDx=0;entryDy=0;" parent="WIyWlLk6GJQsqaUBKTNV-1" source="Kp6rxMUCcgl-6s3tbfnN-87" target="Kp6rxMUCcgl-6s3tbfnN-18" edge="1">
          <mxGeometry relative="1" as="geometry" />
        </mxCell>
        <mxCell id="Kp6rxMUCcgl-6s3tbfnN-87" value="&lt;font style=&quot;font-size: 14px;&quot;&gt;&lt;b style=&quot;color: rgb(255, 0, 0); font-size: medium;&quot;&gt;User&lt;/b&gt;: Abdelrahman&lt;/font&gt;" style="whiteSpace=wrap;html=1;strokeWidth=2;" parent="WIyWlLk6GJQsqaUBKTNV-1" vertex="1">
          <mxGeometry x="-190" y="330" width="120" height="60" as="geometry" />
        </mxCell>
        <mxCell id="Kp6rxMUCcgl-6s3tbfnN-171" style="edgeStyle=orthogonalEdgeStyle;rounded=0;orthogonalLoop=1;jettySize=auto;html=1;exitX=1;exitY=0.5;exitDx=0;exitDy=0;entryX=0;entryY=0.5;entryDx=0;entryDy=0;" parent="WIyWlLk6GJQsqaUBKTNV-1" source="Kp6rxMUCcgl-6s3tbfnN-98" target="Kp6rxMUCcgl-6s3tbfnN-26" edge="1">
          <mxGeometry relative="1" as="geometry" />
        </mxCell>
        <mxCell id="Kp6rxMUCcgl-6s3tbfnN-98" value="&lt;font style=&quot;font-size: 14px;&quot;&gt;&lt;b style=&quot;color: rgb(255, 0, 0); font-size: medium;&quot;&gt;User&lt;/b&gt;: 1-1-1990&lt;/font&gt;" style="whiteSpace=wrap;html=1;strokeWidth=2;" parent="WIyWlLk6GJQsqaUBKTNV-1" vertex="1">
          <mxGeometry x="-190" y="450" width="120" height="60" as="geometry" />
        </mxCell>
        <mxCell id="Kp6rxMUCcgl-6s3tbfnN-181" style="edgeStyle=orthogonalEdgeStyle;rounded=0;orthogonalLoop=1;jettySize=auto;html=1;exitX=0;exitY=0.5;exitDx=0;exitDy=0;entryX=1;entryY=0.5;entryDx=0;entryDy=0;" parent="WIyWlLk6GJQsqaUBKTNV-1" source="Kp6rxMUCcgl-6s3tbfnN-107" target="Kp6rxMUCcgl-6s3tbfnN-33" edge="1">
          <mxGeometry relative="1" as="geometry" />
        </mxCell>
        <mxCell id="Kp6rxMUCcgl-6s3tbfnN-107" value="&lt;font style=&quot;font-size: 14px;&quot;&gt;&lt;b style=&quot;color: rgb(255, 0, 0); font-size: medium;&quot;&gt;User&lt;/b&gt;: a@gmail.de&lt;/font&gt;" style="whiteSpace=wrap;html=1;strokeWidth=2;" parent="WIyWlLk6GJQsqaUBKTNV-1" vertex="1">
          <mxGeometry x="-190" y="585" width="120" height="60" as="geometry" />
        </mxCell>
        <mxCell id="Kp6rxMUCcgl-6s3tbfnN-184" style="edgeStyle=orthogonalEdgeStyle;rounded=0;orthogonalLoop=1;jettySize=auto;html=1;exitX=1;exitY=0.5;exitDx=0;exitDy=0;entryX=0;entryY=0.5;entryDx=0;entryDy=0;" parent="WIyWlLk6GJQsqaUBKTNV-1" source="Kp6rxMUCcgl-6s3tbfnN-121" target="Kp6rxMUCcgl-6s3tbfnN-40" edge="1">
          <mxGeometry relative="1" as="geometry" />
        </mxCell>
        <mxCell id="Kp6rxMUCcgl-6s3tbfnN-121" value="&lt;font style=&quot;font-size: 14px;&quot;&gt;&lt;b style=&quot;color: rgb(255, 0, 0); font-size: medium;&quot;&gt;User&lt;/b&gt;: 016114488&lt;/font&gt;" style="whiteSpace=wrap;html=1;strokeWidth=2;" parent="WIyWlLk6GJQsqaUBKTNV-1" vertex="1">
          <mxGeometry x="-190" y="710" width="120" height="60" as="geometry" />
        </mxCell>
        <mxCell id="Kp6rxMUCcgl-6s3tbfnN-189" style="edgeStyle=orthogonalEdgeStyle;rounded=0;orthogonalLoop=1;jettySize=auto;html=1;exitX=0;exitY=0.5;exitDx=0;exitDy=0;entryX=1;entryY=0.5;entryDx=0;entryDy=0;" parent="WIyWlLk6GJQsqaUBKTNV-1" source="Kp6rxMUCcgl-6s3tbfnN-127" target="Kp6rxMUCcgl-6s3tbfnN-49" edge="1">
          <mxGeometry relative="1" as="geometry" />
        </mxCell>
        <mxCell id="Kp6rxMUCcgl-6s3tbfnN-127" value="&lt;font style=&quot;font-size: 14px;&quot;&gt;&lt;b style=&quot;color: rgb(255, 0, 0); font-size: medium;&quot;&gt;User&lt;/b&gt;: Zanderstr 10&lt;/font&gt;" style="whiteSpace=wrap;html=1;strokeWidth=2;" parent="WIyWlLk6GJQsqaUBKTNV-1" vertex="1">
          <mxGeometry x="-190" y="830" width="120" height="60" as="geometry" />
        </mxCell>
        <mxCell id="Kp6rxMUCcgl-6s3tbfnN-195" style="edgeStyle=orthogonalEdgeStyle;rounded=0;orthogonalLoop=1;jettySize=auto;html=1;exitX=1;exitY=0.5;exitDx=0;exitDy=0;entryX=0;entryY=0.5;entryDx=0;entryDy=0;" parent="WIyWlLk6GJQsqaUBKTNV-1" source="Kp6rxMUCcgl-6s3tbfnN-136" target="Kp6rxMUCcgl-6s3tbfnN-56" edge="1">
          <mxGeometry relative="1" as="geometry" />
        </mxCell>
        <mxCell id="Kp6rxMUCcgl-6s3tbfnN-136" value="&lt;font style=&quot;font-size: 14px;&quot;&gt;&lt;b style=&quot;color: rgb(255, 0, 0); font-size: medium;&quot;&gt;User&lt;/b&gt;: 12345&lt;/font&gt;" style="whiteSpace=wrap;html=1;strokeWidth=2;" parent="WIyWlLk6GJQsqaUBKTNV-1" vertex="1">
          <mxGeometry x="-190" y="950" width="120" height="60" as="geometry" />
        </mxCell>
        <mxCell id="Kp6rxMUCcgl-6s3tbfnN-200" style="edgeStyle=orthogonalEdgeStyle;rounded=0;orthogonalLoop=1;jettySize=auto;html=1;exitX=0;exitY=0.5;exitDx=0;exitDy=0;entryX=1;entryY=0.5;entryDx=0;entryDy=0;" parent="WIyWlLk6GJQsqaUBKTNV-1" source="Kp6rxMUCcgl-6s3tbfnN-145" target="Kp6rxMUCcgl-6s3tbfnN-63" edge="1">
          <mxGeometry relative="1" as="geometry" />
        </mxCell>
        <mxCell id="Kp6rxMUCcgl-6s3tbfnN-145" value="&lt;font style=&quot;font-size: 14px;&quot;&gt;&lt;b style=&quot;color: rgb(255, 0, 0); font-size: medium;&quot;&gt;User&lt;/b&gt;: Berlin&lt;/font&gt;" style="whiteSpace=wrap;html=1;strokeWidth=2;" parent="WIyWlLk6GJQsqaUBKTNV-1" vertex="1">
          <mxGeometry x="-190" y="1060" width="120" height="60" as="geometry" />
        </mxCell>
        <mxCell id="Kp6rxMUCcgl-6s3tbfnN-209" style="edgeStyle=orthogonalEdgeStyle;rounded=0;orthogonalLoop=1;jettySize=auto;html=1;exitX=1;exitY=0.5;exitDx=0;exitDy=0;entryX=0;entryY=0.5;entryDx=0;entryDy=0;" parent="WIyWlLk6GJQsqaUBKTNV-1" source="Kp6rxMUCcgl-6s3tbfnN-152" target="Kp6rxMUCcgl-6s3tbfnN-71" edge="1">
          <mxGeometry relative="1" as="geometry" />
        </mxCell>
        <mxCell id="Kp6rxMUCcgl-6s3tbfnN-152" value="&lt;font style=&quot;font-size: 14px;&quot;&gt;&lt;b style=&quot;color: rgb(255, 0, 0); font-size: medium;&quot;&gt;User&lt;/b&gt;: Germany&lt;/font&gt;" style="whiteSpace=wrap;html=1;strokeWidth=2;" parent="WIyWlLk6GJQsqaUBKTNV-1" vertex="1">
          <mxGeometry x="-190" y="1169" width="120" height="60" as="geometry" />
        </mxCell>
        <mxCell id="Kp6rxMUCcgl-6s3tbfnN-212" style="edgeStyle=orthogonalEdgeStyle;rounded=0;orthogonalLoop=1;jettySize=auto;html=1;exitX=0;exitY=0.5;exitDx=0;exitDy=0;entryX=1;entryY=0.5;entryDx=0;entryDy=0;entryPerimeter=0;" parent="WIyWlLk6GJQsqaUBKTNV-1" source="Kp6rxMUCcgl-6s3tbfnN-76" target="Kp6rxMUCcgl-6s3tbfnN-79" edge="1">
          <mxGeometry relative="1" as="geometry" />
        </mxCell>
      </root>
    </mxGraphModel>
  </diagram>
</mxfile>
